<?xml version="1.0" encoding="UTF-8" standalone="no"?>
<!DOCTYPE svg PUBLIC "-//W3C//DTD SVG 1.1//EN"
 "http://www.w3.org/Graphics/SVG/1.1/DTD/svg11.dtd">
<!-- Generated by graphviz version 2.42.3 (20191010.1750)
 -->
<!-- Title: dotgraph Pages: 1 -->
<svg width="408pt" height="155pt"
 viewBox="0.00 0.00 408.00 155.00" xmlns="http://www.w3.org/2000/svg" xmlns:xlink="http://www.w3.org/1999/xlink">
<g id="graph0" class="graph" transform="scale(1 1) rotate(0) translate(4 151)">
<title>dotgraph</title>
<polygon fill="white" stroke="transparent" points="-4,4 -4,-151 404,-151 404,4 -4,4"/>
<!-- 4 -->
<g id="node1" class="node">
<title>4</title>
<ellipse fill="none" stroke="black" cx="291" cy="-77" rx="18" ry="18"/>
<text text-anchor="middle" x="291" y="-73.3" font-family="Times,serif" font-size="14.00">4</text>
</g>
<!-- 5 -->
<g id="node2" class="node">
<title>5</title>
<ellipse fill="none" stroke="black" cx="382" cy="-108" rx="18" ry="18"/>
<text text-anchor="middle" x="382" y="-104.3" font-family="Times,serif" font-size="14.00">5</text>
</g>
<!-- 4&#45;&gt;5 -->
<g id="edge1" class="edge">
<title>4&#45;&gt;5</title>
<path fill="none" stroke="black" d="M308.32,-82.69C321.37,-87.23 339.91,-93.69 355,-98.94"/>
<polygon fill="black" stroke="black" points="354.18,-102.37 364.78,-102.35 356.49,-95.76 354.18,-102.37"/>
<text text-anchor="middle" x="336.5" y="-98.8" font-family="Times,serif" font-size="14.00">14</text>
</g>
<!-- 1 -->
<g id="node3" class="node">
<title>1</title>
<ellipse fill="none" stroke="black" cx="200" cy="-129" rx="18" ry="18"/>
<text text-anchor="middle" x="200" y="-125.3" font-family="Times,serif" font-size="14.00">1</text>
</g>
<!-- 1&#45;&gt;4 -->
<g id="edge3" class="edge">
<title>1&#45;&gt;4</title>
<path fill="none" stroke="black" d="M215.46,-119.08C221.7,-114.91 229.13,-110.09 236,-106 245.5,-100.34 256.18,-94.5 265.53,-89.55"/>
<polygon fill="black" stroke="black" points="267.43,-92.51 274.67,-84.77 264.19,-86.31 267.43,-92.51"/>
<text text-anchor="middle" x="245.5" y="-109.8" font-family="Times,serif" font-size="14.00">1</text>
</g>
<!-- 1&#45;&gt;5 -->
<g id="edge2" class="edge">
<title>1&#45;&gt;5</title>
<path fill="none" stroke="black" d="M218.01,-127.61C245.14,-125.31 299.87,-120.33 346,-114 348.57,-113.65 351.23,-113.25 353.89,-112.83"/>
<polygon fill="black" stroke="black" points="354.66,-116.25 363.95,-111.16 353.51,-109.35 354.66,-116.25"/>
<text text-anchor="middle" x="291" y="-125.8" font-family="Times,serif" font-size="14.00">21</text>
</g>
<!-- 3 -->
<g id="node4" class="node">
<title>3</title>
<ellipse fill="none" stroke="black" cx="109" cy="-72" rx="18" ry="18"/>
<text text-anchor="middle" x="109" y="-68.3" font-family="Times,serif" font-size="14.00">3</text>
</g>
<!-- 3&#45;&gt;4 -->
<g id="edge6" class="edge">
<title>3&#45;&gt;4</title>
<path fill="none" stroke="black" d="M127.26,-72.48C158.57,-73.35 224.98,-75.19 262.57,-76.24"/>
<polygon fill="black" stroke="black" points="262.7,-79.74 272.79,-76.52 262.89,-72.75 262.7,-79.74"/>
<text text-anchor="middle" x="200" y="-77.8" font-family="Times,serif" font-size="14.00">5</text>
</g>
<!-- 3&#45;&gt;1 -->
<g id="edge4" class="edge">
<title>3&#45;&gt;1</title>
<path fill="none" stroke="black" d="M124.72,-81.16C135.6,-87.96 150.77,-97.49 164,-106 167.89,-108.5 172.01,-111.18 176,-113.79"/>
<polygon fill="black" stroke="black" points="174.12,-116.75 184.4,-119.31 177.96,-110.9 174.12,-116.75"/>
<text text-anchor="middle" x="154.5" y="-109.8" font-family="Times,serif" font-size="14.00">11</text>
</g>
<!-- 2 -->
<g id="node5" class="node">
<title>2</title>
<ellipse fill="none" stroke="black" cx="200" cy="-18" rx="18" ry="18"/>
<text text-anchor="middle" x="200" y="-14.3" font-family="Times,serif" font-size="14.00">2</text>
</g>
<!-- 3&#45;&gt;2 -->
<g id="edge5" class="edge">
<title>3&#45;&gt;2</title>
<path fill="none" stroke="black" d="M122.68,-60.14C129.07,-54.52 137.12,-47.97 145,-43 153.86,-37.41 164.16,-32.33 173.38,-28.23"/>
<polygon fill="black" stroke="black" points="175.02,-31.34 182.84,-24.19 172.27,-24.9 175.02,-31.34"/>
<text text-anchor="middle" x="154.5" y="-46.8" font-family="Times,serif" font-size="14.00">2</text>
</g>
<!-- 2&#45;&gt;4 -->
<g id="edge7" class="edge">
<title>2&#45;&gt;4</title>
<path fill="none" stroke="black" d="M217.35,-23.89C228.48,-28.29 243.25,-34.92 255,-43 260.68,-46.91 266.29,-51.76 271.29,-56.57"/>
<polygon fill="black" stroke="black" points="269.06,-59.3 278.58,-63.95 274.04,-54.38 269.06,-59.3"/>
<text text-anchor="middle" x="245.5" y="-46.8" font-family="Times,serif" font-size="14.00">12</text>
</g>
<!-- 0 -->
<g id="node6" class="node">
<title>0</title>
<ellipse fill="none" stroke="black" cx="18" cy="-72" rx="18" ry="18"/>
<text text-anchor="middle" x="18" y="-68.3" font-family="Times,serif" font-size="14.00">0</text>
</g>
<!-- 0&#45;&gt;1 -->
<g id="edge8" class="edge">
<title>0&#45;&gt;1</title>
<path fill="none" stroke="black" d="M34.04,-80.93C40.12,-84.34 47.27,-88.09 54,-91 93.09,-107.89 103.56,-111.18 145,-121 153.65,-123.05 163.22,-124.67 171.87,-125.91"/>
<polygon fill="black" stroke="black" points="171.46,-129.38 181.83,-127.22 172.38,-122.44 171.46,-129.38"/>
<text text-anchor="middle" x="109" y="-119.8" font-family="Times,serif" font-size="14.00">7</text>
</g>
<!-- 0&#45;&gt;3 -->
<g id="edge9" class="edge">
<title>0&#45;&gt;3</title>
<path fill="none" stroke="black" d="M36.16,-72C48.72,-72 66.02,-72 80.5,-72"/>
<polygon fill="black" stroke="black" points="80.89,-75.5 90.89,-72 80.89,-68.5 80.89,-75.5"/>
<text text-anchor="middle" x="63.5" y="-75.8" font-family="Times,serif" font-size="14.00">10</text>
</g>
<!-- 0&#45;&gt;2 -->
<g id="edge10" class="edge">
<title>0&#45;&gt;2</title>
<path fill="none" stroke="black" d="M32.77,-61.59C46.67,-51.68 69.15,-37.22 91,-30 117.48,-21.24 149.38,-18.6 171.62,-17.93"/>
<polygon fill="black" stroke="black" points="171.77,-21.43 181.7,-17.74 171.63,-14.43 171.77,-21.43"/>
<text text-anchor="middle" x="109" y="-33.8" font-family="Times,serif" font-size="14.00">8</text>
</g>
</g>
</svg>
