<?xml version="1.0" encoding="UTF-8" standalone="no"?>
<!DOCTYPE svg PUBLIC "-//W3C//DTD SVG 1.1//EN"
 "http://www.w3.org/Graphics/SVG/1.1/DTD/svg11.dtd">
<!-- Generated by graphviz version 2.42.3 (20191010.1750)
 -->
<!-- Title: dotgraph Pages: 1 -->
<svg width="472pt" height="484pt"
 viewBox="0.00 0.00 472.00 484.00" xmlns="http://www.w3.org/2000/svg" xmlns:xlink="http://www.w3.org/1999/xlink">
<g id="graph0" class="graph" transform="scale(1 1) rotate(0) translate(4 480)">
<title>dotgraph</title>
<polygon fill="white" stroke="transparent" points="-4,4 -4,-480 468,-480 468,4 -4,4"/>
<!-- 2 -->
<g id="node1" class="node">
<title>2</title>
<ellipse fill="none" stroke="black" cx="18" cy="-109" rx="18" ry="18"/>
<text text-anchor="middle" x="18" y="-105.3" font-family="Times,serif" font-size="14.00">2</text>
</g>
<!-- 0 -->
<g id="node2" class="node">
<title>0</title>
<ellipse fill="none" stroke="black" cx="100" cy="-214" rx="18" ry="18"/>
<text text-anchor="middle" x="100" y="-210.3" font-family="Times,serif" font-size="14.00">0</text>
</g>
<!-- 2&#45;&gt;0 -->
<g id="edge1" class="edge">
<title>2&#45;&gt;0</title>
<path fill="none" stroke="black" d="M23.1,-126.41C27.97,-143.96 37.58,-170.94 54,-189 59.37,-194.91 66.48,-199.74 73.46,-203.52"/>
<polygon fill="black" stroke="black" points="72.19,-206.8 82.71,-208.04 75.26,-200.51 72.19,-206.8"/>
<text text-anchor="middle" x="59" y="-200.8" font-family="Times,serif" font-size="14.00">8</text>
</g>
<!-- 3 -->
<g id="node3" class="node">
<title>3</title>
<ellipse fill="none" stroke="black" cx="446" cy="-232" rx="18" ry="18"/>
<text text-anchor="middle" x="446" y="-228.3" font-family="Times,serif" font-size="14.00">3</text>
</g>
<!-- 2&#45;&gt;3 -->
<g id="edge2" class="edge">
<title>2&#45;&gt;3</title>
<path fill="none" stroke="black" d="M27.34,-93.59C39.89,-72.71 65.76,-38 99,-38 99,-38 99,-38 365,-38 435.72,-38 445.19,-149.56 445.63,-203.48"/>
<polygon fill="black" stroke="black" points="442.13,-203.74 445.61,-213.75 449.13,-203.76 442.13,-203.74"/>
<text text-anchor="middle" x="227.5" y="-41.8" font-family="Times,serif" font-size="14.00">1</text>
</g>
<!-- 4 -->
<g id="node4" class="node">
<title>4</title>
<ellipse fill="none" stroke="black" cx="364" cy="-238" rx="18" ry="18"/>
<text text-anchor="middle" x="364" y="-234.3" font-family="Times,serif" font-size="14.00">4</text>
</g>
<!-- 2&#45;&gt;4 -->
<g id="edge3" class="edge">
<title>2&#45;&gt;4</title>
<path fill="none" stroke="black" d="M36.22,-108.16C81.23,-106.72 204.88,-107.75 291,-156 315.68,-169.83 336.07,-195.43 348.78,-214.36"/>
<polygon fill="black" stroke="black" points="345.85,-216.28 354.22,-222.78 351.73,-212.48 345.85,-216.28"/>
<text text-anchor="middle" x="182" y="-125.8" font-family="Times,serif" font-size="14.00">3</text>
</g>
<!-- 0&#45;&gt;2 -->
<g id="edge8" class="edge">
<title>0&#45;&gt;2</title>
<path fill="none" stroke="black" d="M88.38,-200.06C74.97,-182.46 51.73,-151.96 35.88,-131.15"/>
<polygon fill="black" stroke="black" points="38.63,-128.99 29.79,-123.16 33.07,-133.24 38.63,-128.99"/>
<text text-anchor="middle" x="59" y="-170.8" font-family="Times,serif" font-size="14.00">0</text>
</g>
<!-- 0&#45;&gt;3 -->
<g id="edge10" class="edge">
<title>0&#45;&gt;3</title>
<path fill="none" stroke="black" d="M102.9,-232.16C109.38,-289.2 132.88,-461 181,-461 181,-461 181,-461 365,-461 407.11,-461 432.25,-321.24 441.23,-260.09"/>
<polygon fill="black" stroke="black" points="444.73,-260.36 442.68,-249.97 437.8,-259.37 444.73,-260.36"/>
<text text-anchor="middle" x="273" y="-464.8" font-family="Times,serif" font-size="14.00">0</text>
</g>
<!-- 1 -->
<g id="node6" class="node">
<title>1</title>
<ellipse fill="none" stroke="black" cx="182" cy="-268" rx="18" ry="18"/>
<text text-anchor="middle" x="182" y="-264.3" font-family="Times,serif" font-size="14.00">1</text>
</g>
<!-- 0&#45;&gt;1 -->
<g id="edge9" class="edge">
<title>0&#45;&gt;1</title>
<path fill="none" stroke="black" d="M115.2,-224.37C121.52,-228.93 129.08,-234.3 136,-239 143.03,-243.77 150.78,-248.83 157.83,-253.37"/>
<polygon fill="black" stroke="black" points="155.98,-256.34 166.29,-258.77 159.75,-250.44 155.98,-256.34"/>
<text text-anchor="middle" x="141" y="-248.8" font-family="Times,serif" font-size="14.00">0</text>
</g>
<!-- 3&#45;&gt;2 -->
<g id="edge12" class="edge">
<title>3&#45;&gt;2</title>
<path fill="none" stroke="black" d="M444.85,-213.95C443.87,-179.72 438.38,-103.79 410,-48 396.74,-21.94 394.24,0 365,0 99,0 99,0 99,0 58.54,0 36.3,-49.4 26.08,-81.69"/>
<polygon fill="black" stroke="black" points="22.67,-80.9 23.18,-91.49 29.38,-82.89 22.67,-80.9"/>
<text text-anchor="middle" x="227.5" y="-3.8" font-family="Times,serif" font-size="14.00">1</text>
</g>
<!-- 3&#45;&gt;0 -->
<g id="edge13" class="edge">
<title>3&#45;&gt;0</title>
<path fill="none" stroke="black" d="M434.12,-218.37C420.03,-202.38 393.82,-178 365,-178 181,-178 181,-178 181,-178 160.32,-178 139.06,-188.13 123.66,-197.65"/>
<polygon fill="black" stroke="black" points="121.34,-194.99 114.89,-203.39 125.17,-200.84 121.34,-194.99"/>
<text text-anchor="middle" x="273" y="-181.8" font-family="Times,serif" font-size="14.00">10</text>
</g>
<!-- 3&#45;&gt;4 -->
<g id="edge11" class="edge">
<title>3&#45;&gt;4</title>
<path fill="none" stroke="black" d="M430.99,-221.67C422.2,-216.46 410.56,-211.84 400,-215 395.49,-216.35 391.02,-218.49 386.86,-220.93"/>
<polygon fill="black" stroke="black" points="384.76,-218.13 378.36,-226.57 388.63,-223.96 384.76,-218.13"/>
<text text-anchor="middle" x="405" y="-218.8" font-family="Times,serif" font-size="14.00">0</text>
</g>
<!-- 3&#45;&gt;1 -->
<g id="edge14" class="edge">
<title>3&#45;&gt;1</title>
<path fill="none" stroke="black" d="M431.06,-242.12C405.09,-260.24 346.86,-297.51 291,-310 258.98,-317.16 246.68,-314.93 218,-299 212.54,-295.97 207.21,-291.97 202.41,-287.84"/>
<polygon fill="black" stroke="black" points="204.65,-285.15 194.93,-280.95 199.91,-290.3 204.65,-285.15"/>
<text text-anchor="middle" x="318.5" y="-307.8" font-family="Times,serif" font-size="14.00">7</text>
</g>
<!-- 4&#45;&gt;2 -->
<g id="edge6" class="edge">
<title>4&#45;&gt;2</title>
<path fill="none" stroke="black" d="M361.08,-220.03C355.63,-179.41 336.22,-84 274,-84 99,-84 99,-84 99,-84 79.9,-84 59.36,-90.57 43.87,-96.98"/>
<polygon fill="black" stroke="black" points="42.24,-93.87 34.49,-101.09 45.05,-100.28 42.24,-93.87"/>
<text text-anchor="middle" x="182" y="-87.8" font-family="Times,serif" font-size="14.00">9</text>
</g>
<!-- 4&#45;&gt;3 -->
<g id="edge4" class="edge">
<title>4&#45;&gt;3</title>
<path fill="none" stroke="black" d="M381.97,-236.73C392.29,-235.95 405.72,-234.95 417.53,-234.06"/>
<polygon fill="black" stroke="black" points="418.07,-237.53 427.78,-233.29 417.55,-230.55 418.07,-237.53"/>
<text text-anchor="middle" x="405" y="-238.8" font-family="Times,serif" font-size="14.00">5</text>
</g>
<!-- 5 -->
<g id="node5" class="node">
<title>5</title>
<ellipse fill="none" stroke="black" cx="273" cy="-229" rx="18" ry="18"/>
<text text-anchor="middle" x="273" y="-225.3" font-family="Times,serif" font-size="14.00">5</text>
</g>
<!-- 4&#45;&gt;5 -->
<g id="edge5" class="edge">
<title>4&#45;&gt;5</title>
<path fill="none" stroke="black" d="M350.05,-226.33C343.84,-221.52 336.02,-216.49 328,-214 318.44,-211.04 307.85,-212.88 298.6,-216.13"/>
<polygon fill="black" stroke="black" points="297.07,-212.98 289.2,-220.07 299.78,-219.44 297.07,-212.98"/>
<text text-anchor="middle" x="318.5" y="-217.8" font-family="Times,serif" font-size="14.00">0</text>
</g>
<!-- 4&#45;&gt;1 -->
<g id="edge7" class="edge">
<title>4&#45;&gt;1</title>
<path fill="none" stroke="black" d="M347.6,-245.51C341.6,-248.19 334.59,-251.04 328,-253 280.65,-267.1 267.4,-269.71 218,-269 215.45,-268.96 212.79,-268.91 210.13,-268.85"/>
<polygon fill="black" stroke="black" points="210.18,-265.35 200.09,-268.59 209.99,-272.35 210.18,-265.35"/>
<text text-anchor="middle" x="273" y="-271.8" font-family="Times,serif" font-size="14.00">0</text>
</g>
<!-- 5&#45;&gt;4 -->
<g id="edge19" class="edge">
<title>5&#45;&gt;4</title>
<path fill="none" stroke="black" d="M291.16,-230.74C303.84,-232.02 321.36,-233.79 335.92,-235.26"/>
<polygon fill="black" stroke="black" points="335.59,-238.75 345.89,-236.27 336.3,-231.78 335.59,-238.75"/>
<text text-anchor="middle" x="318.5" y="-237.8" font-family="Times,serif" font-size="14.00">14</text>
</g>
<!-- 5&#45;&gt;1 -->
<g id="edge20" class="edge">
<title>5&#45;&gt;1</title>
<path fill="none" stroke="black" d="M255.64,-224.17C244.51,-221.81 229.73,-220.5 218,-226 209.72,-229.88 202.72,-236.78 197.2,-243.89"/>
<polygon fill="black" stroke="black" points="194.29,-241.95 191.42,-252.15 200.02,-245.96 194.29,-241.95"/>
<text text-anchor="middle" x="227.5" y="-229.8" font-family="Times,serif" font-size="14.00">11</text>
</g>
<!-- 1&#45;&gt;0 -->
<g id="edge15" class="edge">
<title>1&#45;&gt;0</title>
<path fill="none" stroke="black" d="M173.6,-251.91C167.71,-241.05 158.41,-227.38 146,-220 140.71,-216.85 134.45,-215.06 128.31,-214.1"/>
<polygon fill="black" stroke="black" points="128.57,-210.61 118.29,-213.17 127.92,-217.58 128.57,-210.61"/>
<text text-anchor="middle" x="141" y="-223.8" font-family="Times,serif" font-size="14.00">7</text>
</g>
<!-- 1&#45;&gt;3 -->
<g id="edge17" class="edge">
<title>1&#45;&gt;3</title>
<path fill="none" stroke="black" d="M190.51,-284.11C196.45,-295.06 205.77,-308.96 218,-317 258.91,-343.9 280.67,-335.53 328,-323 369.26,-312.07 379.53,-302.9 410,-273 416.11,-267.01 422.31,-260.07 427.77,-253.62"/>
<polygon fill="black" stroke="black" points="430.54,-255.76 434.22,-245.83 425.15,-251.3 430.54,-255.76"/>
<text text-anchor="middle" x="318.5" y="-330.8" font-family="Times,serif" font-size="14.00">4</text>
</g>
<!-- 1&#45;&gt;4 -->
<g id="edge16" class="edge">
<title>1&#45;&gt;4</title>
<path fill="none" stroke="black" d="M198.33,-275.74C204.33,-278.45 211.35,-281.26 218,-283 249.43,-291.24 259.34,-294.29 291,-287 310.77,-282.45 329.59,-269.21 343.03,-257.64"/>
<polygon fill="black" stroke="black" points="345.59,-260.04 350.66,-250.74 340.89,-254.85 345.59,-260.04"/>
<text text-anchor="middle" x="273" y="-294.8" font-family="Times,serif" font-size="14.00">1</text>
</g>
<!-- 1&#45;&gt;5 -->
<g id="edge18" class="edge">
<title>1&#45;&gt;5</title>
<path fill="none" stroke="black" d="M198.91,-261.03C212.2,-255.2 231.39,-246.8 246.77,-240.06"/>
<polygon fill="black" stroke="black" points="248.47,-243.13 256.23,-235.91 245.66,-236.72 248.47,-243.13"/>
<text text-anchor="middle" x="227.5" y="-254.8" font-family="Times,serif" font-size="14.00">10</text>
</g>
</g>
</svg>
