<?xml version="1.0" encoding="UTF-8" standalone="no"?>
<!DOCTYPE svg PUBLIC "-//W3C//DTD SVG 1.1//EN"
 "http://www.w3.org/Graphics/SVG/1.1/DTD/svg11.dtd">
<!-- Generated by graphviz version 2.42.3 (20191010.1750)
 -->
<!-- Title: dotgraph Pages: 1 -->
<svg width="602pt" height="365pt"
 viewBox="0.00 0.00 601.79 365.00" xmlns="http://www.w3.org/2000/svg" xmlns:xlink="http://www.w3.org/1999/xlink">
<g id="graph0" class="graph" transform="scale(1 1) rotate(0) translate(4 361)">
<title>dotgraph</title>
<polygon fill="white" stroke="transparent" points="-4,4 -4,-361 597.79,-361 597.79,4 -4,4"/>
<!-- 8 -->
<g id="node1" class="node">
<title>8</title>
<ellipse fill="none" stroke="black" cx="18" cy="-158" rx="18" ry="18"/>
<text text-anchor="middle" x="18" y="-154.3" font-family="Times,serif" font-size="14.00">8</text>
</g>
<!-- 2000 -->
<g id="node2" class="node">
<title>2000</title>
<ellipse fill="none" stroke="black" cx="116.45" cy="-158" rx="34.39" ry="34.39"/>
<text text-anchor="middle" x="116.45" y="-154.3" font-family="Times,serif" font-size="14.00">2000</text>
</g>
<!-- 8&#45;&gt;2000 -->
<g id="edge1" class="edge">
<title>8&#45;&gt;2000</title>
<path fill="none" stroke="black" d="M36.24,-158C46.15,-158 59.08,-158 71.61,-158"/>
<polygon fill="black" stroke="black" points="71.97,-161.5 81.97,-158 71.97,-154.5 71.97,-161.5"/>
<text text-anchor="middle" x="59" y="-161.8" font-family="Times,serif" font-size="14.00">1</text>
</g>
<!-- 5 -->
<g id="node4" class="node">
<title>5</title>
<ellipse fill="none" stroke="black" cx="214.89" cy="-248" rx="18" ry="18"/>
<text text-anchor="middle" x="214.89" y="-244.3" font-family="Times,serif" font-size="14.00">5</text>
</g>
<!-- 2000&#45;&gt;5 -->
<g id="edge19" class="edge">
<title>2000&#45;&gt;5</title>
<path fill="none" stroke="black" d="M135.12,-187.31C144.04,-200.36 155.75,-215.18 168.89,-226 174.58,-230.68 181.42,-234.67 188.04,-237.92"/>
<polygon fill="black" stroke="black" points="186.85,-241.22 197.41,-242.13 189.73,-234.84 186.85,-241.22"/>
<text text-anchor="middle" x="173.89" y="-235.8" font-family="Times,serif" font-size="14.00">1</text>
</g>
<!-- 7 -->
<g id="node8" class="node">
<title>7</title>
<ellipse fill="none" stroke="black" cx="575.79" cy="-193" rx="18" ry="18"/>
<text text-anchor="middle" x="575.79" y="-189.3" font-family="Times,serif" font-size="14.00">7</text>
</g>
<!-- 2000&#45;&gt;7 -->
<g id="edge20" class="edge">
<title>2000&#45;&gt;7</title>
<path fill="none" stroke="black" d="M149.73,-167.61C168.31,-172.32 192.22,-177 213.89,-177 213.89,-177 213.89,-177 494.79,-177 512.97,-177 533.03,-181.02 548.52,-185.04"/>
<polygon fill="black" stroke="black" points="547.86,-188.48 558.43,-187.76 549.72,-181.73 547.86,-188.48"/>
<text text-anchor="middle" x="337.89" y="-180.8" font-family="Times,serif" font-size="14.00">1</text>
</g>
<!-- 6 -->
<g id="node10" class="node">
<title>6</title>
<ellipse fill="none" stroke="black" cx="575.79" cy="-55" rx="18" ry="18"/>
<text text-anchor="middle" x="575.79" y="-51.3" font-family="Times,serif" font-size="14.00">6</text>
</g>
<!-- 2000&#45;&gt;6 -->
<g id="edge21" class="edge">
<title>2000&#45;&gt;6</title>
<path fill="none" stroke="black" d="M127.88,-125.21C141.49,-89.68 168.99,-38 213.89,-38 213.89,-38 213.89,-38 494.79,-38 513.02,-38 533.08,-42.27 548.55,-46.54"/>
<polygon fill="black" stroke="black" points="547.88,-49.99 558.46,-49.43 549.84,-43.27 547.88,-49.99"/>
<text text-anchor="middle" x="337.89" y="-41.8" font-family="Times,serif" font-size="14.00">1</text>
</g>
<!-- 1 -->
<g id="node3" class="node">
<title>1</title>
<ellipse fill="none" stroke="black" cx="493.79" cy="-339" rx="18" ry="18"/>
<text text-anchor="middle" x="493.79" y="-335.3" font-family="Times,serif" font-size="14.00">1</text>
</g>
<!-- 1&#45;&gt;5 -->
<g id="edge2" class="edge">
<title>1&#45;&gt;5</title>
<path fill="none" stroke="black" d="M475.83,-335.85C439.23,-328.79 350.36,-310.36 278.89,-285 265.96,-280.41 262.82,-278.79 250.89,-272 246.75,-269.64 242.46,-266.94 238.37,-264.22"/>
<polygon fill="black" stroke="black" points="240.08,-261.14 229.85,-258.36 236.11,-266.91 240.08,-261.14"/>
<text text-anchor="middle" x="337.89" y="-307.8" font-family="Times,serif" font-size="14.00">1</text>
</g>
<!-- 5&#45;&gt;2000 -->
<g id="edge6" class="edge">
<title>5&#45;&gt;2000</title>
<path fill="none" stroke="black" d="M202.22,-235.02C195.56,-227.78 186.95,-218.7 178.89,-211 170.23,-202.72 160.53,-194.09 151.45,-186.26"/>
<polygon fill="black" stroke="black" points="153.55,-183.45 143.67,-179.61 149,-188.77 153.55,-183.45"/>
<text text-anchor="middle" x="173.89" y="-214.8" font-family="Times,serif" font-size="14.00">0</text>
</g>
<!-- 4 -->
<g id="node5" class="node">
<title>4</title>
<ellipse fill="none" stroke="black" cx="296.89" cy="-258" rx="18" ry="18"/>
<text text-anchor="middle" x="296.89" y="-254.3" font-family="Times,serif" font-size="14.00">4</text>
</g>
<!-- 5&#45;&gt;4 -->
<g id="edge5" class="edge">
<title>5&#45;&gt;4</title>
<path fill="none" stroke="black" d="M232.86,-250.12C243.36,-251.43 257.07,-253.15 269.03,-254.64"/>
<polygon fill="black" stroke="black" points="268.6,-258.11 278.95,-255.88 269.46,-251.17 268.6,-258.11"/>
<text text-anchor="middle" x="255.89" y="-256.8" font-family="Times,serif" font-size="14.00">1</text>
</g>
<!-- 4&#45;&gt;5 -->
<g id="edge4" class="edge">
<title>4&#45;&gt;5</title>
<path fill="none" stroke="black" d="M283.9,-245.01C277.67,-239.23 269.56,-233.04 260.89,-230 253.58,-227.43 245.7,-229.05 238.61,-232.16"/>
<polygon fill="black" stroke="black" points="236.67,-229.23 229.56,-237.09 240.02,-235.38 236.67,-229.23"/>
<text text-anchor="middle" x="255.89" y="-233.8" font-family="Times,serif" font-size="14.00">0</text>
</g>
<!-- 1000 -->
<g id="node6" class="node">
<title>1000</title>
<ellipse fill="none" stroke="black" cx="395.34" cy="-248" rx="34.39" ry="34.39"/>
<text text-anchor="middle" x="395.34" y="-244.3" font-family="Times,serif" font-size="14.00">1000</text>
</g>
<!-- 4&#45;&gt;1000 -->
<g id="edge3" class="edge">
<title>4&#45;&gt;1000</title>
<path fill="none" stroke="black" d="M314.91,-261.51C320.6,-262.53 327,-263.5 332.89,-264 339.45,-264.56 346.3,-263.99 352.93,-262.78"/>
<polygon fill="black" stroke="black" points="354.16,-266.09 363.12,-260.43 352.59,-259.27 354.16,-266.09"/>
<text text-anchor="middle" x="337.89" y="-267.8" font-family="Times,serif" font-size="14.00">1</text>
</g>
<!-- 1000&#45;&gt;1 -->
<g id="edge11" class="edge">
<title>1000&#45;&gt;1</title>
<path fill="none" stroke="black" d="M420.93,-271.2C436.99,-286.36 457.7,-305.9 472.76,-320.11"/>
<polygon fill="black" stroke="black" points="470.39,-322.68 480.07,-327 475.2,-317.59 470.39,-322.68"/>
<text text-anchor="middle" x="452.79" y="-307.8" font-family="Times,serif" font-size="14.00">1</text>
</g>
<!-- 1000&#45;&gt;4 -->
<g id="edge12" class="edge">
<title>1000&#45;&gt;4</title>
<path fill="none" stroke="black" d="M361,-243.64C351.84,-243.18 341.93,-243.38 332.89,-245 329.64,-245.58 326.29,-246.45 323.02,-247.47"/>
<polygon fill="black" stroke="black" points="321.84,-244.17 313.59,-250.82 324.18,-250.77 321.84,-244.17"/>
<text text-anchor="middle" x="337.89" y="-248.8" font-family="Times,serif" font-size="14.00">0</text>
</g>
<!-- 3 -->
<g id="node7" class="node">
<title>3</title>
<ellipse fill="none" stroke="black" cx="493.79" cy="-248" rx="18" ry="18"/>
<text text-anchor="middle" x="493.79" y="-244.3" font-family="Times,serif" font-size="14.00">3</text>
</g>
<!-- 1000&#45;&gt;3 -->
<g id="edge13" class="edge">
<title>1000&#45;&gt;3</title>
<path fill="none" stroke="black" d="M427.17,-261.85C436.92,-264.67 447.77,-266.18 457.79,-264 461.29,-263.24 464.86,-262.09 468.31,-260.76"/>
<polygon fill="black" stroke="black" points="469.87,-263.9 477.6,-256.66 467.04,-257.49 469.87,-263.9"/>
<text text-anchor="middle" x="452.79" y="-268.8" font-family="Times,serif" font-size="14.00">0</text>
</g>
<!-- 2 -->
<g id="node9" class="node">
<title>2</title>
<ellipse fill="none" stroke="black" cx="493.79" cy="-93" rx="18" ry="18"/>
<text text-anchor="middle" x="493.79" y="-89.3" font-family="Times,serif" font-size="14.00">2</text>
</g>
<!-- 1000&#45;&gt;2 -->
<g id="edge14" class="edge">
<title>1000&#45;&gt;2</title>
<path fill="none" stroke="black" d="M414.26,-219.21C432.66,-189.63 460.96,-144.14 478.09,-116.61"/>
<polygon fill="black" stroke="black" points="481.13,-118.36 483.44,-108.02 475.19,-114.66 481.13,-118.36"/>
<text text-anchor="middle" x="452.79" y="-164.8" font-family="Times,serif" font-size="14.00">0</text>
</g>
<!-- 3&#45;&gt;1000 -->
<g id="edge7" class="edge">
<title>3&#45;&gt;1000</title>
<path fill="none" stroke="black" d="M475.63,-248C465.62,-248 452.49,-248 439.81,-248"/>
<polygon fill="black" stroke="black" points="439.8,-244.5 429.8,-248 439.8,-251.5 439.8,-244.5"/>
<text text-anchor="middle" x="452.79" y="-251.8" font-family="Times,serif" font-size="14.00">1</text>
</g>
<!-- 3&#45;&gt;7 -->
<g id="edge8" class="edge">
<title>3&#45;&gt;7</title>
<path fill="none" stroke="black" d="M510.84,-241.57C519.74,-237.66 530.78,-232.24 539.79,-226 545.29,-222.2 550.77,-217.54 555.71,-212.94"/>
<polygon fill="black" stroke="black" points="558.22,-215.38 562.94,-205.89 553.34,-210.36 558.22,-215.38"/>
<text text-anchor="middle" x="534.79" y="-234.8" font-family="Times,serif" font-size="14.00">0</text>
</g>
<!-- 7&#45;&gt;2000 -->
<g id="edge10" class="edge">
<title>7&#45;&gt;2000</title>
<path fill="none" stroke="black" d="M563.91,-179.37C549.82,-163.38 523.61,-139 494.79,-139 213.89,-139 213.89,-139 213.89,-139 195.95,-139 176.47,-142.21 159.74,-145.99"/>
<polygon fill="black" stroke="black" points="158.63,-142.65 149.73,-148.39 160.27,-149.46 158.63,-142.65"/>
<text text-anchor="middle" x="337.89" y="-142.8" font-family="Times,serif" font-size="14.00">0</text>
</g>
<!-- 7&#45;&gt;3 -->
<g id="edge9" class="edge">
<title>7&#45;&gt;3</title>
<path fill="none" stroke="black" d="M557.99,-195.87C549.08,-197.96 538.26,-201.42 529.79,-207 522.54,-211.78 515.94,-218.48 510.48,-225.09"/>
<polygon fill="black" stroke="black" points="507.53,-223.19 504.21,-233.25 513.08,-227.45 507.53,-223.19"/>
<text text-anchor="middle" x="534.79" y="-210.8" font-family="Times,serif" font-size="14.00">1</text>
</g>
<!-- 2&#45;&gt;1000 -->
<g id="edge15" class="edge">
<title>2&#45;&gt;1000</title>
<path fill="none" stroke="black" d="M478.77,-102.92C469.09,-110.34 456.44,-121.2 447.79,-133 431.61,-155.07 418.96,-183.04 410.25,-205.87"/>
<polygon fill="black" stroke="black" points="406.94,-204.71 406.76,-215.31 413.51,-207.14 406.94,-204.71"/>
<text text-anchor="middle" x="452.79" y="-136.8" font-family="Times,serif" font-size="14.00">1</text>
</g>
<!-- 2&#45;&gt;6 -->
<g id="edge16" class="edge">
<title>2&#45;&gt;6</title>
<path fill="none" stroke="black" d="M512.14,-93.11C520.79,-92.57 531.22,-91 539.79,-87 545.76,-84.21 551.42,-80.04 556.38,-75.62"/>
<polygon fill="black" stroke="black" points="558.83,-78.12 563.54,-68.63 553.94,-73.11 558.83,-78.12"/>
<text text-anchor="middle" x="534.79" y="-94.8" font-family="Times,serif" font-size="14.00">0</text>
</g>
<!-- 6&#45;&gt;2000 -->
<g id="edge18" class="edge">
<title>6&#45;&gt;2000</title>
<path fill="none" stroke="black" d="M563.96,-41.12C549.93,-24.83 523.78,0 494.79,0 213.89,0 213.89,0 213.89,0 160.15,0 135.47,-67.42 124.81,-114.18"/>
<polygon fill="black" stroke="black" points="121.36,-113.59 122.68,-124.11 128.2,-115.06 121.36,-113.59"/>
<text text-anchor="middle" x="337.89" y="-3.8" font-family="Times,serif" font-size="14.00">0</text>
</g>
<!-- 6&#45;&gt;2 -->
<g id="edge17" class="edge">
<title>6&#45;&gt;2</title>
<path fill="none" stroke="black" d="M558.05,-58.4C549.36,-60.52 538.72,-63.68 529.79,-68 525.24,-70.2 520.65,-72.99 516.36,-75.89"/>
<polygon fill="black" stroke="black" points="514.13,-73.19 508.07,-81.88 518.23,-78.86 514.13,-73.19"/>
<text text-anchor="middle" x="534.79" y="-71.8" font-family="Times,serif" font-size="14.00">1</text>
</g>
</g>
</svg>
