<?xml version="1.0" encoding="UTF-8" standalone="no"?>
<!DOCTYPE svg PUBLIC "-//W3C//DTD SVG 1.1//EN"
 "http://www.w3.org/Graphics/SVG/1.1/DTD/svg11.dtd">
<!-- Generated by graphviz version 2.42.3 (20191010.1750)
 -->
<!-- Title: dotgraph Pages: 1 -->
<svg width="356pt" height="237pt"
 viewBox="0.00 0.00 355.79 237.00" xmlns="http://www.w3.org/2000/svg" xmlns:xlink="http://www.w3.org/1999/xlink">
<g id="graph0" class="graph" transform="scale(1 1) rotate(0) translate(4 233)">
<title>dotgraph</title>
<polygon fill="white" stroke="transparent" points="-4,4 -4,-233 351.79,-233 351.79,4 -4,4"/>
<!-- 1000 -->
<g id="node1" class="node">
<title>1000</title>
<ellipse fill="none" stroke="black" cx="34.45" cy="-130" rx="34.39" ry="34.39"/>
<text text-anchor="middle" x="34.45" y="-126.3" font-family="Times,serif" font-size="14.00">1000</text>
</g>
<!-- 1 -->
<g id="node2" class="node">
<title>1</title>
<ellipse fill="none" stroke="black" cx="132.89" cy="-103" rx="18" ry="18"/>
<text text-anchor="middle" x="132.89" y="-99.3" font-family="Times,serif" font-size="14.00">1</text>
</g>
<!-- 1000&#45;&gt;1 -->
<g id="edge1" class="edge">
<title>1000&#45;&gt;1</title>
<path fill="none" stroke="black" d="M67.83,-120.93C80.06,-117.51 93.83,-113.66 105.46,-110.4"/>
<polygon fill="black" stroke="black" points="106.74,-113.68 115.43,-107.61 104.85,-106.94 106.74,-113.68"/>
<text text-anchor="middle" x="91.89" y="-117.8" font-family="Times,serif" font-size="14.00">1</text>
</g>
<!-- 2 -->
<g id="node3" class="node">
<title>2</title>
<ellipse fill="none" stroke="black" cx="132.89" cy="-211" rx="18" ry="18"/>
<text text-anchor="middle" x="132.89" y="-207.3" font-family="Times,serif" font-size="14.00">2</text>
</g>
<!-- 1000&#45;&gt;2 -->
<g id="edge2" class="edge">
<title>1000&#45;&gt;2</title>
<path fill="none" stroke="black" d="M61.29,-151.71C76.69,-164.63 95.99,-180.84 110.52,-193.05"/>
<polygon fill="black" stroke="black" points="108.54,-195.96 118.45,-199.71 113.05,-190.6 108.54,-195.96"/>
<text text-anchor="middle" x="91.89" y="-183.8" font-family="Times,serif" font-size="14.00">1</text>
</g>
<!-- 3 -->
<g id="node4" class="node">
<title>3</title>
<ellipse fill="none" stroke="black" cx="132.89" cy="-49" rx="18" ry="18"/>
<text text-anchor="middle" x="132.89" y="-45.3" font-family="Times,serif" font-size="14.00">3</text>
</g>
<!-- 1000&#45;&gt;3 -->
<g id="edge3" class="edge">
<title>1000&#45;&gt;3</title>
<path fill="none" stroke="black" d="M61.29,-108.29C76.69,-95.37 95.99,-79.16 110.52,-66.95"/>
<polygon fill="black" stroke="black" points="113.05,-69.4 118.45,-60.29 108.54,-64.04 113.05,-69.4"/>
<text text-anchor="middle" x="91.89" y="-87.8" font-family="Times,serif" font-size="14.00">1</text>
</g>
<!-- 4 -->
<g id="node5" class="node">
<title>4</title>
<ellipse fill="none" stroke="black" cx="132.89" cy="-157" rx="18" ry="18"/>
<text text-anchor="middle" x="132.89" y="-153.3" font-family="Times,serif" font-size="14.00">4</text>
</g>
<!-- 1000&#45;&gt;4 -->
<g id="edge4" class="edge">
<title>1000&#45;&gt;4</title>
<path fill="none" stroke="black" d="M67.83,-139.07C80.06,-142.49 93.83,-146.34 105.46,-149.6"/>
<polygon fill="black" stroke="black" points="104.85,-153.06 115.43,-152.39 106.74,-146.32 104.85,-153.06"/>
<text text-anchor="middle" x="91.89" y="-149.8" font-family="Times,serif" font-size="14.00">1</text>
</g>
<!-- 5 -->
<g id="node6" class="node">
<title>5</title>
<ellipse fill="none" stroke="black" cx="214.89" cy="-126" rx="18" ry="18"/>
<text text-anchor="middle" x="214.89" y="-122.3" font-family="Times,serif" font-size="14.00">5</text>
</g>
<!-- 1&#45;&gt;5 -->
<g id="edge9" class="edge">
<title>1&#45;&gt;5</title>
<path fill="none" stroke="black" d="M150.47,-107.77C161.2,-110.85 175.39,-114.93 187.63,-118.45"/>
<polygon fill="black" stroke="black" points="186.76,-121.84 197.34,-121.24 188.7,-115.11 186.76,-121.84"/>
<text text-anchor="middle" x="173.89" y="-118.8" font-family="Times,serif" font-size="14.00">1</text>
</g>
<!-- 6 -->
<g id="node8" class="node">
<title>6</title>
<ellipse fill="none" stroke="black" cx="214.89" cy="-186" rx="18" ry="18"/>
<text text-anchor="middle" x="214.89" y="-182.3" font-family="Times,serif" font-size="14.00">6</text>
</g>
<!-- 2&#45;&gt;6 -->
<g id="edge10" class="edge">
<title>2&#45;&gt;6</title>
<path fill="none" stroke="black" d="M150.47,-205.82C161.27,-202.45 175.58,-197.97 187.88,-194.13"/>
<polygon fill="black" stroke="black" points="189.11,-197.41 197.61,-191.09 187.02,-190.73 189.11,-197.41"/>
<text text-anchor="middle" x="173.89" y="-202.8" font-family="Times,serif" font-size="14.00">1</text>
</g>
<!-- 7 -->
<g id="node9" class="node">
<title>7</title>
<ellipse fill="none" stroke="black" cx="214.89" cy="-72" rx="18" ry="18"/>
<text text-anchor="middle" x="214.89" y="-68.3" font-family="Times,serif" font-size="14.00">7</text>
</g>
<!-- 3&#45;&gt;7 -->
<g id="edge11" class="edge">
<title>3&#45;&gt;7</title>
<path fill="none" stroke="black" d="M150.47,-53.77C161.2,-56.85 175.39,-60.93 187.63,-64.45"/>
<polygon fill="black" stroke="black" points="186.76,-67.84 197.34,-67.24 188.7,-61.11 186.76,-67.84"/>
<text text-anchor="middle" x="173.89" y="-64.8" font-family="Times,serif" font-size="14.00">1</text>
</g>
<!-- 4&#45;&gt;5 -->
<g id="edge12" class="edge">
<title>4&#45;&gt;5</title>
<path fill="none" stroke="black" d="M150.08,-150.73C161.03,-146.48 175.73,-140.79 188.26,-135.93"/>
<polygon fill="black" stroke="black" points="189.67,-139.14 197.73,-132.26 187.14,-132.61 189.67,-139.14"/>
<text text-anchor="middle" x="173.89" y="-146.8" font-family="Times,serif" font-size="14.00">1</text>
</g>
<!-- 2000 -->
<g id="node7" class="node">
<title>2000</title>
<ellipse fill="none" stroke="black" cx="313.34" cy="-99" rx="34.39" ry="34.39"/>
<text text-anchor="middle" x="313.34" y="-95.3" font-family="Times,serif" font-size="14.00">2000</text>
</g>
<!-- 5&#45;&gt;2000 -->
<g id="edge5" class="edge">
<title>5&#45;&gt;2000</title>
<path fill="none" stroke="black" d="M232.69,-121.3C243.02,-118.41 256.74,-114.57 269.88,-110.89"/>
<polygon fill="black" stroke="black" points="271.07,-114.19 279.76,-108.12 269.18,-107.45 271.07,-114.19"/>
<text text-anchor="middle" x="255.89" y="-118.8" font-family="Times,serif" font-size="14.00">1</text>
</g>
<!-- 6&#45;&gt;2000 -->
<g id="edge6" class="edge">
<title>6&#45;&gt;2000</title>
<path fill="none" stroke="black" d="M228.9,-174.27C241.83,-162.6 262.19,-144.24 279.56,-128.57"/>
<polygon fill="black" stroke="black" points="282.21,-130.89 287.29,-121.59 277.52,-125.69 282.21,-130.89"/>
<text text-anchor="middle" x="255.89" y="-155.8" font-family="Times,serif" font-size="14.00">1</text>
</g>
<!-- 7&#45;&gt;2000 -->
<g id="edge7" class="edge">
<title>7&#45;&gt;2000</title>
<path fill="none" stroke="black" d="M232.69,-76.7C243.02,-79.59 256.74,-83.43 269.88,-87.11"/>
<polygon fill="black" stroke="black" points="269.18,-90.55 279.76,-89.88 271.07,-83.81 269.18,-90.55"/>
<text text-anchor="middle" x="255.89" y="-86.8" font-family="Times,serif" font-size="14.00">1</text>
</g>
<!-- 8 -->
<g id="node10" class="node">
<title>8</title>
<ellipse fill="none" stroke="black" cx="214.89" cy="-18" rx="18" ry="18"/>
<text text-anchor="middle" x="214.89" y="-14.3" font-family="Times,serif" font-size="14.00">8</text>
</g>
<!-- 8&#45;&gt;2000 -->
<g id="edge8" class="edge">
<title>8&#45;&gt;2000</title>
<path fill="none" stroke="black" d="M229.3,-29.26C241.94,-39.87 261.39,-56.21 278.3,-70.41"/>
<polygon fill="black" stroke="black" points="276.44,-73.42 286.35,-77.17 280.95,-68.06 276.44,-73.42"/>
<text text-anchor="middle" x="255.89" y="-56.8" font-family="Times,serif" font-size="14.00">1</text>
</g>
</g>
</svg>
